<svg xmlns="http://www.w3.org/2000/svg" xmlns:se="http://svg-edit.googlecode.com" xmlns:xlink="http://www.w3.org/1999/xlink" xmlns:dc="http://purl.org/dc/elements/1.1/" xmlns:cc="http://creativecommons.org/ns#" xmlns:rdf="http://www.w3.org/1999/02/22-rdf-syntax-ns#" xmlns:inkscape="http://www.inkscape.org/namespaces/inkscape" width="130" height="85">                                    <title>my vector image</title>                                    <!-- Created with Vector Paint - http://www.vectorpaint.yaks.com/ https://chrome.google.com/webstore/detail/hnbpdiengicdefcjecjbnjnoifekhgdo -->                                    <rect id="backgroundrect" width="100%" height="100%" x="0" y="0" fill="#FFFFFF" stroke="none" class="" style="" opacity="0"/>                                <g class="currentLayer" style=""><title>Layer 1</title><path fill="#ffffff" fill-opacity="1" stroke="#222222" stroke-opacity="1" stroke-width="2" stroke-dasharray="none" stroke-linejoin="round" stroke-linecap="butt" stroke-dashoffset="" fill-rule="nonzero" opacity="1" marker-start="" marker-mid="" marker-end="" d="M1.787401556968689,119 C1.787401556968689,119 1.787401556968689,119 1.787401556968689,119 C1.787401556968689,119 1.787401556968689,119 1.787401556968689,119 C1.787401556968689,119 1.787401556968689,119 1.787401556968689,119 C1.787401556968689,119 1.787401556968689,119 1.787401556968689,119 z" id="svg_6" class="selected"/><path fill="#ffffff" fill-opacity="1" stroke="#ffffff" stroke-opacity="1" stroke-width="2" stroke-dasharray="none" stroke-linejoin="round" stroke-linecap="butt" stroke-dashoffset="" fill-rule="nonzero" opacity="1" marker-start="" marker-mid="" marker-end="" d="M1,17.988189220428467 C1,8.602449319639248 8.602449319639277,1 17.988189220428467,1 C27.373929121217657,1 34.976378440856934,8.602449319639248 34.976378440856934,17.988189220428467 C34.976378440856934,27.373929121217685 27.373929121217657,34.976378440856934 17.988189220428467,34.976378440856934 C8.602449319639277,34.976378440856934 1,27.373929121217685 1,17.988189220428467 z" id="svg_4" class="selected"/><path fill="#ffffff" fill-opacity="1" stroke="#ffffff" stroke-opacity="1" stroke-width="2" stroke-dasharray="none" stroke-linejoin="round" stroke-linecap="butt" stroke-dashoffset="" fill-rule="nonzero" opacity="1" marker-start="" marker-mid="" marker-end="" d="M48.244093894958496,17.988189697265625 C48.244093894958496,8.602449796476407 55.84654321459777,1.0000004768371582 65.23228311538696,1.0000004768371582 C74.61802301617615,1.0000004768371582 82.22047233581543,8.602449796476407 82.22047233581543,17.988189697265625 C82.22047233581543,27.373929598054843 74.61802301617615,34.97637891769409 65.23228311538696,34.97637891769409 C55.84654321459777,34.97637891769409 48.244093894958496,27.373929598054843 48.244093894958496,17.988189697265625 z" class="selected" id="svg_2"/><path fill="#ffffff" fill-opacity="1" stroke="#ffffff" stroke-opacity="1" stroke-width="2" stroke-dasharray="none" stroke-linejoin="round" stroke-linecap="butt" stroke-dashoffset="" fill-rule="nonzero" opacity="1" marker-start="" marker-mid="" marker-end="" d="M94.70078730583191,17.988190412521362 C94.70078730583191,8.602450511732144 102.30323662547119,1.0000011920928957 111.68897652626038,1.0000011920928957 C121.07471642704957,1.0000011920928957 128.67716574668884,8.602450511732144 128.67716574668884,17.988190412521362 C128.67716574668884,27.37393031331058 121.07471642704957,34.97637963294983 111.68897652626038,34.97637963294983 C102.30323662547119,34.97637963294983 94.70078730583191,27.37393031331058 94.70078730583191,17.988190412521362 z" class="selected" id="svg_5"/><path fill="#ffffff" fill-opacity="1" stroke="#ffffff" stroke-opacity="1" stroke-width="2" stroke-dasharray="none" stroke-linejoin="round" stroke-linecap="butt" stroke-dashoffset="" fill-rule="nonzero" opacity="1" marker-start="" marker-mid="" marker-end="" d="M94.70078706741333,66.80708980560303 C94.70078706741333,57.42134990481381 102.3032363870526,49.81890058517456 111.6889762878418,49.81890058517456 C121.07471618863099,49.81890058517456 128.67716550827026,57.42134990481381 128.67716550827026,66.80708980560303 C128.67716550827026,76.19282970639225 121.07471618863099,83.7952790260315 111.6889762878418,83.7952790260315 C102.3032363870526,83.7952790260315 94.70078706741333,76.19282970639225 94.70078706741333,66.80708980560303 z" class="selected" id="svg_7"/><path fill="#ffffff" fill-opacity="1" stroke="#ffffff" stroke-opacity="1" stroke-width="2" stroke-dasharray="none" stroke-linejoin="round" stroke-linecap="butt" stroke-dashoffset="" fill-rule="nonzero" opacity="1" marker-start="" marker-mid="" marker-end="" d="M48.24409365653992,66.80708909034729 C48.24409365653992,57.42134918955807 55.846542976179194,49.81889986991882 65.23228287696838,49.81889986991882 C74.61802277775757,49.81889986991882 82.22047209739685,57.42134918955807 82.22047209739685,66.80708909034729 C82.22047209739685,76.19282899113651 74.61802277775757,83.79527831077576 65.23228287696838,83.79527831077576 C55.846542976179194,83.79527831077576 48.24409365653992,76.19282899113651 48.24409365653992,66.80708909034729 z" class="selected" id="svg_3"/><path fill="#ffffff" fill-opacity="1" stroke="#ffffff" stroke-opacity="1" stroke-width="2" stroke-dasharray="none" stroke-linejoin="round" stroke-linecap="butt" stroke-dashoffset="" fill-rule="nonzero" opacity="1" marker-start="" marker-mid="" marker-end="" d="M1.7874013185501099,66.80708861351013 C1.7874013185501099,57.42134871272091 9.389850638189387,49.818899393081665 18.775590538978577,49.818899393081665 C28.161330439767767,49.818899393081665 35.76377975940704,57.42134871272091 35.76377975940704,66.80708861351013 C35.76377975940704,76.19282851429935 28.161330439767767,83.7952778339386 18.775590538978577,83.7952778339386 C9.389850638189387,83.7952778339386 1.7874013185501099,76.19282851429935 1.7874013185501099,66.80708861351013 z" class="selected" id="svg_1"/></g></svg>