<svg xmlns="http://www.w3.org/2000/svg" xmlns:xlink="http://www.w3.org/1999/xlink" version="1.1" width="112" height="86" style="enable-background:new 0 0 442.533 442.533;" xml:space="preserve"><rect id="backgroundrect" width="100%" height="100%" x="0" y="0" fill="none" stroke="none" class="" style=""/>
<g class="currentLayer" style=""><title>Layer 1</title><g id="svg_1" class="selected" fill="#5FC102" fill-opacity="1">
	<path d="M109.89724064132633,12.062969796372343 l-9.819809176210697,-9.819809176210697 c-1.3464681171872297,-1.347479738612614 -2.984030299528948,-2.0214725132752682 -4.9088929666799626,-2.0214725132752682 c-1.926633004645438,0 -3.5641951869871566,0.6739927746626535 -4.910663304174386,2.0214725132752682 L42.89021938275398,49.68238864751494 l-21.228622706344634,-21.30095363825965 c-1.347985549325307,-1.347985549325307 -2.9845361102416392,-2.0212196079189213 -4.909398777392655,-2.0212196079189213 c-1.926127193932746,0 -3.5626777548490796,0.6732340585936148 -4.910663304174386,2.0212196079189213 L2.0217254186316134,38.20149709082233 C0.673739869306307,39.54922973479128 1.1102230246251565e-16,41.18628610642031 1.1102230246251565e-16,43.11216039499672 c0,1.9243568564383224 0.6737398693063072,3.562930660205425 2.0217254186316134,4.91041039881804 l26.13802148373729,26.1375156730246 l9.820567892279735,9.819809176210697 c1.347226833256268,1.348491360037999 2.984283204885294,2.0217254186316134 4.9099045881053485,2.0217254186316134 c1.9248626671510145,0 3.561919038780041,-0.6750043960880385 4.9099045881053485,-2.0217254186316134 l9.820314986923387,-9.819809176210697 L109.89724064132633,21.883537688652083 c1.3467210225435755,-1.347985549325307 2.0217254186316134,-2.9847890155979866 2.0217254186316134,-4.910663304174386 C111.91997768138333,15.048011717326688 111.24396166386991,13.410955345697658 109.89724064132633,12.062969796372343 z" id="svg_2" fill="#5FC102" fill-opacity="1"/>
</g></g></svg>