<svg xmlns="http://www.w3.org/2000/svg" xmlns:xlink="http://www.w3.org/1999/xlink" version="1.1" width="79" height="62" style="enable-background:new 0 0 511.626 511.626;" xml:space="preserve"><rect id="backgroundrect" width="100%" height="100%" x="0" y="0" fill="none" stroke="none" class="" style=""/>
<g class="currentLayer" style=""><title>Layer 1</title><g id="svg_1" class="selected" fill="#ffffff" fill-opacity="1">
	<g id="svg_2" fill="#ffffff" fill-opacity="1">
		<path d="M8.965530943038203,22.708347076088913 c-2.3191891975244823,0 -4.289814765821548,0.8111832472234349 -5.9132472040886865,2.434463407801963 C1.4296126891254417,26.765481533714947 0.617972608836169,28.736107102012006 0.617972608836169,31.055296299536494 c0,2.318123253704215 0.8116400802892639,4.289967043510158 2.4349202408677915,5.912942648711466 c1.623280160578528,1.6226710498240897 3.5943625619414226,2.4340065747361335 5.9132472040886865,2.4340065747361335 c2.3184278090814336,0 4.289205655067111,-0.8113355249120445 5.912638093334247,-2.4340065747361335 c1.622823327512699,-1.622823327512699 2.434463407801963,-3.5946671173186426 2.434463407801963,-5.912942648711466 c0,-2.3191891975244823 -0.8116400802892639,-4.289814765821548 -2.4349202408677915,-5.912638093334247 C13.255345708859757,23.519987156378164 11.28441558518547,22.708347076088913 8.965530943038203,22.708347076088913 z" id="svg_3" fill="#ffffff" fill-opacity="1"/>
		<path d="M8.965987776104036,0.44808999975770547 c-2.3191891975244823,0 -4.289814765821548,0.8116400802892639 -5.9132472040886865,2.434463407801963 C1.4300695221912605,4.505833568138208 0.6184294419019949,6.476459136435274 0.6184294419019949,8.795191500893935 c0,2.319036919835872 0.8111832472234349,4.289814765821548 2.4343111301133535,5.913094926400076 c1.623280160578528,1.622823327512699 3.5943625619414226,2.4341588524247433 5.9132472040886865,2.4341588524247433 c2.3184278090814336,0 4.289205655067111,-0.8114878026006542 5.912638093334247,-2.4341588524247433 c1.622823327512699,-1.623280160578528 2.434463407801963,-3.5942102842528136 2.434463407801963,-5.913094926400076 c0,-2.3187323644586533 -0.8116400802892639,-4.289357932755719 -2.434463407801963,-5.912638093334247 C13.255954819614196,1.259730080046996 11.285176973628516,0.44808999975770547 8.965987776104036,0.44808999975770547 z" id="svg_4" fill="#ffffff" fill-opacity="1"/>
		<path d="M8.965987776104036,44.96845187473147 c-2.3191891975244823,0 -4.2904238765759874,0.8108786918462159 -5.9132472040886865,2.4335497416703054 C1.4300695221912605,49.025738610046105 0.6184294419019949,50.99666873372041 0.6184294419019949,53.314639709735985 c0,2.31995058596753 0.8111832472234349,4.289814765821548 2.4343111301133535,5.913551759465906 c1.623280160578528,1.622823327512699 3.5943625619414226,2.4341588524247433 5.9132472040886865,2.4341588524247433 c2.3184278090814336,0 4.289205655067111,-0.8113355249120445 5.912638093334247,-2.4341588524247433 c1.622823327512699,-1.623736993644357 2.434463407801963,-3.5936011734983753 2.434463407801963,-5.913551759465906 c0,-2.318123253704215 -0.8116400802892639,-4.289967043510158 -2.434463407801963,-5.912638093334247 C13.255954819614196,45.7793305665777 11.285176973628516,44.96845187473147 8.965987776104036,44.96845187473147 z" id="svg_5" fill="#ffffff" fill-opacity="1"/>
		<path d="M78.11467706297712,3.643332739853328 c-0.27607944944923757,-0.2745566725631413 -0.6013445923193821,-0.4123679807548457 -0.9786887046940147,-0.4123679807548457 H24.268677259861768 c-0.3765827239315854,0 -0.7027615329333873,0.13735447512587545 -0.9780795939395766,0.4123679807548457 c-0.2751657833175799,0.27592717176062814 -0.4129770915092841,0.6013445923193821 -0.4129770915092841,0.9780795939395766 v8.348015167267867 c0,0.37688727930880483 0.13781130819170442,0.7021524221789486 0.4129770915092841,0.9782318716281861 c0.27547033869479914,0.2748612279403608 0.601649147696601,0.4123679807548457 0.9780795939395766,0.4123679807548457 H77.13598835828311 c0.37734411237463367,0 0.7029138106219966,-0.13704991974865635 0.9786887046940147,-0.4123679807548457 c0.27562261638340885,-0.27592717176062814 0.41267253613206495,-0.6013445923193821 0.41267253613206495,-0.9782318716281861 V4.621564611481517 C78.52719732142059,4.244829609861327 78.3896905686061,3.9188030785481303 78.11467706297712,3.643332739853328 z" id="svg_6" fill="#ffffff" fill-opacity="1"/>
		<path d="M77.13598835828311,25.490765002363823 H24.268677259861768 c-0.3765827239315854,0 -0.7027615329333873,0.13704991974865635 -0.9780795939395766,0.4129770915092841 c-0.2751657833175799,0.2751657833175799 -0.4129770915092841,0.6013445923193821 -0.4129770915092841,0.9780795939395766 v8.34771061189065 c0,0.37643044624297556 0.13781130819170442,0.7024569775561679 0.4129770915092841,0.9777750385623571 c0.27547033869479914,0.27607944944923757 0.601649147696601,0.41328164688650326 0.9780795939395766,0.41328164688650326 H77.13598835828311 c0.37734411237463367,0 0.7029138106219966,-0.13704991974865635 0.9786887046940147,-0.41328164688650326 c0.27562261638340885,-0.27531806100618955 0.41267253613206495,-0.6013445923193821 0.41267253613206495,-0.9777750385623571 v-8.34771061189065 c0,-0.37673500162019513 -0.13750675281448504,-0.703522921376435 -0.41267253613206495,-0.9780795939395766 C77.83844533583928,25.628424032866924 77.51318019296913,25.490765002363823 77.13598835828311,25.490765002363823 z" id="svg_7" fill="#ffffff" fill-opacity="1"/>
		<path d="M77.13598835828311,47.750108412563364 H24.268677259861768 c-0.3765827239315854,0 -0.7027615329333873,0.13750675281448504 -0.9780795939395766,0.41328164688650326 c-0.2751657833175799,0.27562261638340885 -0.4129770915092841,0.6013445923193821 -0.4129770915092841,0.9776227608737473 V57.48872343221427 c0,0.37734411237463367 0.13781130819170442,0.7029138106219966 0.4129770915092841,0.9786887046940147 c0.27547033869479914,0.2751657833175799 0.601649147696601,0.41221570306623606 0.9780795939395766,0.41221570306623606 H77.13598835828311 c0.37734411237463367,0 0.7029138106219966,-0.13704991974865635 0.9786887046940147,-0.41221570306623606 c0.27562261638340885,-0.2757748940720184 0.41267253613206495,-0.6013445923193821 0.41267253613206495,-0.9786887046940147 v-8.34771061189065 c0,-0.3762781685543663 -0.13750675281448504,-0.7030660883106061 -0.41267253613206495,-0.9776227608737473 C77.83844533583928,47.88868110919813 77.51318019296913,47.750108412563364 77.13598835828311,47.750108412563364 z" id="svg_8" fill="#ffffff" fill-opacity="1"/>
	</g>
</g></g></svg>