<svg xmlns="http://www.w3.org/2000/svg" xmlns:xlink="http://www.w3.org/1999/xlink" version="1.1" style="enable-background:new 0 0 268.476 268.476;" xml:space="preserve" width="42" height="57"><rect id="backgroundrect" width="100%" height="100%" x="0" y="0" fill="none" stroke="none" class="" style=""/>
<g class="currentLayer" style=""><title>Layer 1</title><g id="Delete__x2F__Trash" class="" fill="#ffffff" fill-opacity="1">
	<path style="fill-rule:evenodd;clip-rule:evenodd;" d="M6.3349516897847105,53.073078214287754 c0,0 0.8480952942967418,3.8644642292261127 5.213485026180744,3.8644642292261127 h19.7384159116745 c4.365177655041218,0 5.213272949337959,-3.8644642292261127 5.213272949337959,-3.8644642292261127 l3.8966999093294143,-37.88964873194694 H2.4384638572980752 L6.3349516897847105,53.073078214287754 zM29.00935941297311,20.87726855742931 c0,-1.0482958338856696 0.8495798321962359,-1.8978756660819056 1.8978756660819056,-1.8978756660819056 c1.0482958338856696,0 1.89808774292469,0.8495798321962359 1.89808774292469,1.8978756660819056 l-1.89808774292469,28.468771221756935 c0,1.0482958338856696 -0.8497919090390208,1.8978756660819056 -1.8978756660819056,1.8978756660819056 c-1.048083757042885,0 -1.8978756660819056,-0.8497919090390208 -1.8978756660819056,-1.8978756660819056 L29.00935941297311,20.87726855742931 zM19.519769005720796,20.87726855742931 c0,-1.0482958338856696 0.8497919090390208,-1.8978756660819056 1.8978756660819056,-1.8978756660819056 c1.0482958338856696,0 1.8978756660819056,0.8495798321962359 1.8978756660819056,1.8978756660819056 v28.468771221756935 c0,1.0482958338856696 -0.8495798321962359,1.8978756660819056 -1.8978756660819056,1.8978756660819056 c-1.0482958338856696,0 -1.8978756660819056,-0.8497919090390208 -1.8978756660819056,-1.8978756660819056 V20.87726855742931 zM11.92805426455039,18.979180814504623 c1.0482958338856696,0 1.8978756660819056,0.8495798321962359 1.8978756660819056,1.8978756660819056 l1.89808774292469,28.468771221756935 c0,1.0482958338856696 -0.8497919090390208,1.8978756660819056 -1.89808774292469,1.8978756660819056 c-1.048083757042885,0 -1.8978756660819056,-0.8497919090390208 -1.8978756660819056,-1.8978756660819056 L10.030178598468481,20.87726855742931 C10.030178598468481,19.828972723543643 10.879970507507508,18.979180814504623 11.92805426455039,18.979180814504623 zM39.25797284055251,7.594683816969395 h-8.350737761497497 V3.7959634090065957 C30.907235079055013,0.916596114516258 29.976005662386598,0 27.111483746891203,0 L15.7238055967142,0 C13.096385591452304,0 11.92805426455039,1.2726731335520745 11.92805426455039,3.7959634090065957 v3.798932484805584 H3.5773165030528915 c-1.6783761337995529,0 -3.0367283118367197,1.2739455946087836 -3.0367283118367197,2.8481919986009596 c0,1.5744584808349606 1.3583521780371668,2.848404075443745 3.0367283118367197,2.848404075443745 H39.25797284055251 c1.6783761337995529,0 3.0367283118367197,-1.2739455946087836 3.0367283118367197,-2.848404075443745 C42.29470115238922,8.868841488420964 40.93634897435206,7.594683816969395 39.25797284055251,7.594683816969395 zM27.111483746891203,7.594683816969395 h-11.387466073334217 l0.00021207684278488174,-3.798932484805584 h11.387466073334217 V7.594683816969395 z" id="svg_1" fill="#ffffff" fill-opacity="1"/>
</g></g></svg>