<svg xmlns="http://www.w3.org/2000/svg" xmlns:xlink="http://www.w3.org/1999/xlink" version="1.1" style="" xml:space="preserve" width="50" height="49"><rect id="backgroundrect" width="100%" height="100%" x="0" y="0" fill="none" stroke="none" class="" style=""/>
<g class="currentLayer" style=""><title>Layer 1</title><path d="M48.85679242885113,22.73 c0.983,-0.9580000000000001 1.33,-2.364 0.906,-3.6710000000000003 c-0.42500000000000004,-1.307 -1.532,-2.24 -2.8920000000000003,-2.438 l-12.092,-1.7570000000000001 c-0.515,-0.07500000000000001 -0.9600000000000001,-0.3980000000000001 -1.19,-0.8650000000000001 L28.182792428851126,3.043 c-0.6070000000000001,-1.231 -1.839,-1.996 -3.212,-1.996 c-1.372,0 -2.604,0.7650000000000001 -3.211,1.996 L16.352792428851128,14 c-0.23,0.467 -0.6760000000000002,0.79 -1.191,0.8650000000000001 L3.0697924288511276,16.622 c-1.359,0.19700000000000004 -2.467,1.131 -2.8920000000000003,2.438 c-0.42400000000000004,1.307 -0.07700000000000001,2.713 0.906,3.6710000000000003 l8.749,8.528 c0.37300000000000005,0.36400000000000005 0.544,0.8880000000000001 0.456,1.4 L8.224792428851128,44.701 c-0.18300000000000002,1.06 0.09500000000000003,2.091 0.781,2.904 c1.066,1.267 2.927,1.653 4.415,0.8710000000000001 l10.814,-5.686 c0.452,-0.23700000000000002 1.021,-0.23500000000000001 1.472,0 l10.815,5.686 c0.526,0.277 1.087,0.41700000000000004 1.6660000000000001,0.41700000000000004 c1.057,0 2.059,-0.47000000000000003 2.748,-1.288 c0.6870000000000002,-0.8130000000000001 0.9640000000000001,-1.846 0.781,-2.904 l-2.065,-12.042 c-0.08800000000000002,-0.513 0.08300000000000002,-1.036 0.456,-1.4 L48.85679242885113,22.73 z" id="svg_1" class="" fill="#ffffff" fill-opacity="1"/><g id="svg_2" class="">
</g></g></svg>